<svg height="512" viewBox="0 0 512 512" width="512" xmlns="http://www.w3.org/2000/svg"><g id="Upload"><path d="m496 344v16a32 32 0 0 1 -32 32h-416a32 32 0 0 1 -32-32v-16z" fill="#57565c"/><path d="m496 136v208h-480v-208a32 32 0 0 1 32-32h416a32 32 0 0 1 32 32z" fill="#e0e0e2"/><path d="m328 424h-144l8-32h128z" fill="#e0e0e2"/><path d="m144 424h224v24h-224z" fill="#57565c"/><path d="m184 144 72-80 72 80h-32v104h-80v-104z" fill="#91cc04"/><path d="m160 280h192v32h-192z" fill="#ffda44"/><path d="m464 96h-168.437l-33.617-37.352a8 8 0 0 0 -11.892 0l-34.054 37.838v-.486h-168a40.045 40.045 0 0 0 -40 40v224a40.045 40.045 0 0 0 40 40h133.754l-4 16h-33.754a8 8 0 0 0 -8 8v24a8 8 0 0 0 8 8h224a8 8 0 0 0 8-8v-24a8 8 0 0 0 -8-8h-33.754l-4-16h133.754a40.045 40.045 0 0 0 40-40v-224a40.045 40.045 0 0 0 -40-40zm-208-20.041 54.037 60.041h-14.037a8 8 0 0 0 -8 8v96h-64v-96a8 8 0 0 0 -8-8h-14.037zm-232 60.041a24.027 24.027 0 0 1 24-24h154.037l-23.983 26.648a8 8 0 0 0 5.946 13.352h24v96a8 8 0 0 0 8 8h80a8 8 0 0 0 8-8v-96h24a8 8 0 0 0 5.946-13.352l-23.983-26.648h154.037a24.027 24.027 0 0 1 24 24v200h-464zm336 304h-208v-8h208zm-42.246-24h-123.508l4-16h115.508zm170.246-56a24.027 24.027 0 0 1 -24 24h-416a24.027 24.027 0 0 1 -24-24v-8h464z"/><path d="m48 376h40a8 8 0 0 0 0-16h-40a8 8 0 0 0 0 16z"/><path d="m112 376h8a8 8 0 0 0 0-16h-8a8 8 0 0 0 0 16z"/><path d="m352 272h-192a8 8 0 0 0 -8 8v32a8 8 0 0 0 8 8h192a8 8 0 0 0 8-8v-32a8 8 0 0 0 -8-8zm-8 32h-176v-16h176z"/></g></svg>